# White Dwarf — Sample Cube OBJ for Testing
# This is a simple cube mesh for wireframe viewer testing

# Vertices
v -1.0 -1.0  1.0
v  1.0 -1.0  1.0
v  1.0  1.0  1.0
v -1.0  1.0  1.0
v -1.0 -1.0 -1.0
v  1.0 -1.0 -1.0
v  1.0  1.0 -1.0
v -1.0  1.0 -1.0

# Normals
vn  0.0  0.0  1.0
vn  0.0  0.0 -1.0
vn  1.0  0.0  0.0
vn -1.0  0.0  0.0
vn  0.0  1.0  0.0
vn  0.0 -1.0  0.0

# Faces (front)
f 1//1 2//1 3//1
f 1//1 3//1 4//1

# Faces (back)
f 6//2 5//2 8//2
f 6//2 8//2 7//2

# Faces (right)
f 2//3 6//3 7//3
f 2//3 7//3 3//3

# Faces (left)
f 5//4 1//4 4//4
f 5//4 4//4 8//4

# Faces (top)
f 4//5 3//5 7//5
f 4//5 7//5 8//5

# Faces (bottom)
f 5//6 6//6 2//6
f 5//6 2//6 1//6
